{"title":"ROBIN HOOD Prince of Thieves(1991)MPEG-4[DaScubaDude]","uid":15472215,"size":1735059798,"categoryP":"video","categoryS":"movies","magnet":"?xt=urn:btih:ce0f3f1673518348459ca813109234f94557d018&amp;dn=ROBIN+HOOD+Prince+of+Thieves%281991%29MPEG-4%5BDaScubaDude%5D&amp;tr=udp%3A%2F%2Ftracker.leechers-paradise.org%3A6969&amp;tr=udp%3A%2F%2Fzer0day.ch%3A1337&amp;tr=udp%3A%2F%2Fopen.demonii.com%3A1337&amp;tr=udp%3A%2F%2Ftracker.coppersurfer.tk%3A6969&amp;tr=udp%3A%2F%2Fexodus.desync.com%3A6969","seeders":0,"leechers":1,"uploader":"dascuba","files":1,"time":1470149634,"description":"Robin Hood: Prince of Thieves (1991)\r\nPG-13 | 2h 23min | Action, Adventure, Drama | 14 June 1991 (USA)\r\nWhen Robin and his Moorish companion come to England and the tyranny of the Sheriff of Nottingham, he decides to fight back as an outlaw.\r\nDirector: Kevin Reynolds\r\nWriters: Pen Densham (story), Pen Densham (screenplay) | \r\nStars: Kevin Costner, Morgan Freeman, Mary Elizabeth Mastrantonio |\r\n\r\nGeneral\r\nComplete name                            : ROBIN HOOD P of TROBIN_HOOD_PRINCE_OF_THIEVES_D1_Title1.mp4\r\nFormat                                   : MPEG-4\r\nFormat profile                           : Base Media\r\nCodec ID                                 : isom (isom/iso2/avc1/mp41)\r\nFile size                                : 1.62 GiB\r\nDuration                                 : 2h 35mn\r\nOverall bit rate                         : 1 492 Kbps\r\nMovie name                               : ROBIN_HOOD_PRINCE_OF_THIEVES_D1\r\nWriting application                      : Lavf54.6.100\r\n\r\nVideo\r\nID                                       : 1\r\nFormat                                   : AVC\r\nFormat/Info                              : Advanced Video Codec\r\nFormat profile                           :   \r\nFormat settings, CABAC                   : No\r\nFormat settings, ReFrames                : 6 frames\r\nCodec ID                                 : avc1\r\nCodec ID/Info                            : Advanced Video Coding\r\nDuration                                 : 2h 35mn\r\nBit rate                                 : 1 195 Kbps\r\nWidth                                    : 720 pixels\r\nHeight                                   : 404 pixels\r\nDisplay aspect ratio                     : 16:9\r\nFrame rate mode                          : Constant\r\nFrame rate                               : 29.970 (30000/1001) fps\r\nColor space                              : YUV\r\nChroma subsampling                       : 4:2:0\r\nBit depth                                : 8 bits\r\nScan type                                : Progressive\r\nBits/(Pixel*Frame)                       : 0.137\r\nStream size                              : 1.29 GiB (80%)\r\n\r\nAudio\r\nID                                       : 2\r\nFormat                                   : AAC\r\nFormat/Info                              : Advanced Audio Codec\r\nFormat profile                           : LC\r\nCodec ID                                 : 40\r\nDuration                                 : 2h 35mn\r\nBit rate mode                            : Constant\r\nBit rate                                 : 288 Kbps\r\nChannel(s)                               : 2 channels\r\nChannel(s)_Original                      : 6 channels\r\nChannel positions                        : Front: L C R, Side: L R, LFE\r\nSampling rate                            : 44.1 KHz\r\nFrame rate                               : 43.066 fps (1024 spf)\r\nCompression mode                         : Lossy\r\nStream size                              : 322 MiB (19%)\r\nDefault                                  : Yes\r\nAlternate group                          : 1","torrent":{"xt":"urn:btih:ce0f3f1673518348459ca813109234f94557d018","amp;dn":"ROBIN+HOOD+Prince+of+Thieves%281991%29MPEG-4%5BDaScubaDude%5D","amp;tr":["udp%3A%2F%2Ftracker.leechers-paradise.org%3A6969","udp%3A%2F%2Fzer0day.ch%3A1337","udp%3A%2F%2Fopen.demonii.com%3A1337","udp%3A%2F%2Ftracker.coppersurfer.tk%3A6969","udp%3A%2F%2Fexodus.desync.com%3A6969"],"infoHash":"ce0f3f1673518348459ca813109234f94557d018","infoHashBuffer":{"type":"Buffer","data":[206,15,63,22,115,81,131,72,69,156,168,19,16,146,52,249,69,87,208,24]},"announce":[],"urlList":[]}}